
<svg version="1.1" id="Layer_1" 
	 xmlns="http://www.w3.org/2000/svg" x="0px" y="0px" viewBox="0 0 750 750"
	 style="enable-background:new 0 0 750 750;" xml:space="preserve">
	<g fill='#fff'>
		<path d="M673.4,520.7c-1.8-18.8-4.3-37.4-8.2-55.8c-5.3-24.6-10-49.5-10.8-74.7c-1-30.7-3.4-61.3-5.3-91.9
			c-1.2-17.9-5.1-35.5-8-53.2c-5-30.4-10.7-60.1-28.2-86.6c-18.2-27.5-41.5-44-75.8-41.2c-5.7,0.5-11.4,0.5-17,1.3
			c-13.9,2-28,2.3-41.6,5.7c-20.4,5.1-41,9.2-61.8,12.2C371,143.2,327,154.7,285,173.7c-16.7,7.5-33.7,15.1-46.4,29.2
			c-23.3,25.8-39.2,55.3-42.5,90.5c-0.4,4.1-1.8,4.2-4.9,2.8c-6.8-3.1-13.3-7.2-20.4-9c-12.5-3.2-16-10.4-14.7-22.6
			c0.9-8.1-0.2-16.5-3.8-24.4c-10.3-22.8-50.2-21.9-62.2-9.2c-1.8,1.9-3.4,4-4.9,6.2c-6.7,9.9-7.3,21.3-8.3,32.7
			c-1.9,21.5,1,42.9,0.5,64.4c-0.4,15.1,1.7,29.8,7.6,43.7c4.8,11.4,11.9,20.8,25.3,23.4c17.1,3.4,42.7-10.7,45.2-31.1
			c0.4-3.4,0.8-6.9,1.2-10.6c14.9,5.6,29.5,11.2,44.3,16.6c2.8,1,3.5,2.9,3.8,5.5c1.4,11.7,5.3,22.5,10.6,33
			c9.8,19.5,21.4,37.9,37.2,53c15.9,15.1,35.5,24.1,56.9,28.5c32.9,6.8,64.4,0.3,95-11.7c16-6.3,30.2-16.8,47.7-21.4
			c2.1,30.9,6.5,61.4,13.3,91.5c5,22.1,13.4,43.5,13.7,66.7c0.2,11.7,6.2,14.6,16.5,8.4c10.7-6.5,22.3-11,33.5-16.5
			c24.6-12,48.1-26.1,72.6-38.4c20.3-10.3,41.1-19.4,60.6-31.4C671.8,537.8,674.3,530.3,673.4,520.7z M161.2,294.5
			c29.9,14.2,61.8,22.9,93,33.6c10.2,3.5,20.2,2.5,30.3-0.3c23.6-6.7,45.3-18.1,67.5-28.2c2.8-1.3,6.9-5.7,8.8-1.7
			c1.9,3.9-4,4.8-6.8,5.8c-21.4,7.9-41.2,19.2-62,28.3c-14.4,6.3-28.8,6.5-43.5,1.6c-35.5-11.7-70.2-25.2-104.6-42.4
			C151,289.7,156.1,292.2,161.2,294.5z M296,317.5c5.1-13.9,9.9-26.6,23.7-31.2c12.3-4.1,25.2-4.6,37.4,5.4
			C336,299.1,318.2,311.2,296,317.5z M145.6,363.3c-0.7,13.9-9.6,23.4-23,25.3c-7.8,1.1-13.6-2.5-18-8.2c-3.6-4.5-5.7-10.1-5.7-15.9
			c0.3-28.1-4.1-55.9-4.7-80.8c0.7-12.1-0.6-21.2,1.7-30.1c2.9-11.3,10.1-18.5,19.6-19.6c10.8-1.2,20.7,0.2,26.9,10.6
			c3.4,5.7,2.1,12.4,3.2,18.6c0.5,2.8,0,5.7,0.2,8.5c0.4,7.1,1,13.6-9,14.9c-5.3,0.7-7.7,6.1-9.2,11.1c-2.3,7.6-3,15.5-2.5,23.4
			c0.5,8,4.2,15.4,10.9,18.5C147.4,345,146.1,354.1,145.6,363.3z M204.7,365.8c-9.5-3.2-18.9-7-28.3-10.5
			c-14.1-5.1-27.1-12.4-38.7-21.8c-8.7-7-10.9-18.2-6.9-28.6c3.2-8.2,7.5-10,15.4-6c25,12.7,51.2,22.6,77.5,32.4
			c12.1,4.5,24.1,9,37,11.1c16.4,2.7,30.7-3.3,44.8-10c18.8-8.8,38.3-16.1,56.4-26.5c2.1-1.2,3.7-1.5,4.6,1.1
			c4.2,11.8,8.9,23.5,8.5,36.4c-0.1,2.2-0.1,4.1-2.8,5.1c-28.1,10.4-56.1,21.1-84.1,31.5c-6,2.2-12.2,3.6-17,2.4
			C246.7,381.1,225.9,372.9,204.7,365.8z M331.1,392.6c-1.8-7.2,0-13.8,1.8-20.6c0.5-1.8,1.8-2.4,3.2-3c11.5-4.7,23.1-9.2,34.6-14
			c3.3-1.4,4.9-1.1,4.7,2.9c-0.8,19.7-12.2,39.1-36.8,40.9C333.5,400.6,332.2,397.1,331.1,392.6z M331.3,398.6
			c-8.7,1.5-24.4-8.5-26.3-16.1c-0.6-2.3,0.9-2.7,2.2-3.2c7.5-2.9,14.6-4.8,24-8.3C325.7,381.7,325.9,389.8,331.3,398.6z M277.6,472
			c-34.7-21.9-53.2-55.3-63.3-94.1c-0.2-0.6,0.1-1.3,0.2-2.9c11,5.3,22.2,7.4,33.2,10.2c15.5,3.9,31,5.7,46.4-0.7
			c2.6-1.1,4.4-1.2,6.4,2c7.9,12.9,19,19.9,34.8,18.9c17.2-1.1,30.9-7.5,39.5-23c7-12.7,7.4-26.5,6.4-40.3
			c-1.1-16.8-6.4-32.4-14.6-47.2c-12.6-22.8-50.4-22.2-65.4-1.7c-4.9,6.6-8.8,13.7-10.2,21.8c-0.6,3.6-2.5,5.1-5.6,6.3
			c-10.9,4.2-21.9,4-32.8,0.5c-14-4.5-27.6-9.9-41.8-13.5c-2.9-0.7-4.5-2.1-4.3-5.4c3.1-44,20.8-80.2,57.4-105.7
			c8.6-6,19.5-8.3,29.7-11.6c14.7-4.8,29.1-5.8,43.9-6.1c21.4-0.4,39.3,6.9,55.4,22.5c14.4,14,26.2,29.4,36.6,46
			c14.7,23.6,23.2,49.5,24.2,77.5c0.3,9.6,1.2,19.3,1.2,28.9c0.3,60-31.7,117.9-100.1,132.2C328.1,492.1,301.2,486.9,277.6,472z
			 M449.7,452.4c-14.8,7.5-30.9,12.3-45.5,20.6c23.8-18.2,40.2-41.6,50.6-70.2c2.5,12.8,0.6,25.3,2.3,37.4
			C458,447.2,455,449.7,449.7,452.4z M662.8,527.6c-0.4,3.6-2.9,5.7-6,7.3c-18.5,9.4-37.1,18.8-55.5,28.4
			c-23,11.9-45.9,24.1-68.6,36.6c-10.9,6-21.9,12-32.4,18.8c-2.4,1.5-5,2.7-7.6,3.9c-2.9,1.3-4.3,0.6-4.4-3
			c-1.2-24.2-7.2-47.5-12.6-71c-7.7-33.4-12.3-67.2-12.6-101.6c-0.2-22.5-1.1-45.1-1.6-67.6c-0.6-23-0.5-46.2-3.3-69.1
			c-2.9-23.4-11.9-45.4-23.7-65.6c-5-8.5-11.5-16-16.3-24.7c-2.7-4.8-6.9-8.5-11-12.1c-4.6-4.1-9.3-8.1-13.4-12.7
			c-13.3-15-30.6-20.6-49.8-21.7c-10.7-0.6-21.4-0.4-32.2,0c10.8-3.5,21.5-7.2,32.3-10.4c26.7-7.9,54-12.9,81.5-17.3
			c20.5-3.3,40.7-8.5,61.1-12c19.5-3.4,39-7.9,59.2-6.6c9.3,0.6,17.8,2.7,25.6,7.3c27,15.7,41.4,40.5,49.5,69.8
			c7.8,28.1,12.3,56.9,15.5,85.8c3.6,32.8,5.8,65.7,6.5,98.8c0.5,24.8,5.9,49.1,10.1,73.4c2.8,16.6,6.6,33.1,10,49.6
			C664.4,517.2,663.5,522.4,662.8,527.6z M125.4,357.9c-4.9-0.1-8.2,4-8.4,10.5c-0.1,4.9,4,9.1,9.1,9.2c4.7,0.1,9-4.7,9.1-10.2
			C135.3,362.6,130.6,358.1,125.4,357.9z M125.8,373.5c-2.4,0-5.1-0.7-5.4-3.6l9.6-0.7C129.4,371.5,128.3,373.5,125.8,373.5z
			 M133.7,258.1c0.2-5.1-3.7-9.2-9-9.3c-5.3-0.2-10.1,5.5-10.4,12.3c-0.2,4.9,3.3,8.4,8.6,8.7C128.8,270.1,133.5,265,133.7,258.1z
			 M121.1,265.5c-2.7-0.4-4.3-2.4-3.9-5.1c0.4-2.5,1-6.3,3.8-6c3.5,0.4,2,4.5,2.6,7C123.2,263.1,124.5,266,121.1,265.5z"/>
	</g>
</svg>
