
<svg version="1.0" xmlns="http://www.w3.org/2000/svg"
 width="650.000000pt" height="650.000000pt" viewBox="0 0 650.000000 650.000000"
 preserveAspectRatio="xMidYMid meet">

<g transform="translate(0.000000,650.000000) scale(0.100000,-0.100000)"
fill="#000000" stroke="none">
<path d="M1537 5043 c-4 -3 -7 -15 -7 -25 0 -10 -5 -18 -11 -18 -14 0 -5 -98
11 -114 5 -5 10 -40 10 -77 0 -69 13 -123 36 -150 8 -9 11 -18 8 -22 -3 -3 3
-12 15 -19 12 -7 21 -18 21 -25 0 -7 5 -13 10 -13 6 0 10 -11 10 -25 0 -13 7
-28 15 -33 21 -11 29 -81 26 -214 -3 -114 11 -167 58 -215 28 -29 106 -32 142
-5 42 30 68 42 94 42 14 0 25 -4 25 -9 0 -5 9 -13 20 -16 11 -4 18 -11 15 -16
-4 -5 -2 -9 4 -9 14 0 101 -83 101 -97 0 -6 7 -13 15 -17 8 -3 15 -12 15 -21
0 -8 4 -15 9 -15 5 0 13 -10 17 -22 4 -13 10 -25 14 -28 18 -12 110 -142 105
-149 -2 -4 4 -17 13 -27 10 -10 37 -48 61 -83 23 -35 53 -73 66 -83 14 -11 25
-26 25 -34 0 -8 7 -14 15 -14 8 0 15 -4 15 -10 0 -5 6 -10 14 -10 7 0 30 -15
51 -34 29 -27 53 -38 113 -50 43 -9 96 -21 120 -26 23 -6 52 -10 63 -10 24 0
99 -39 99 -52 0 -4 9 -8 20 -8 11 0 20 -7 20 -15 0 -9 9 -25 20 -37 24 -26 26
-58 5 -58 -8 0 -15 -5 -15 -11 0 -7 -11 -9 -30 -5 -16 3 -30 2 -30 -3 0 -5
-41 -14 -91 -20 -50 -7 -103 -18 -118 -25 -53 -26 -250 -71 -290 -67 -13 2
-21 -1 -18 -6 3 -4 -5 -9 -16 -10 -165 -16 -227 -29 -295 -59 -30 -13 -75 -26
-100 -28 -26 -2 -58 -9 -72 -15 -14 -5 -99 -15 -190 -21 -91 -6 -219 -20 -285
-31 -164 -27 -177 -29 -185 -34 -3 -2 -35 -5 -71 -6 -35 -1 -70 -6 -76 -11 -8
-6 -138 -10 -320 -10 -170 -1 -312 -4 -318 -8 -42 -30 -351 -43 -361 -15 -7
18 -106 47 -129 39 -28 -11 -16 -103 18 -144 15 -17 27 -36 27 -42 0 -27 83
-78 153 -92 15 -4 27 -11 27 -16 0 -6 5 -10 11 -10 6 0 17 -7 26 -16 9 -8 21
-13 29 -10 7 3 37 -17 66 -44 29 -27 67 -56 84 -64 17 -9 51 -34 75 -56 37
-33 51 -40 86 -40 23 0 53 5 66 11 24 11 77 89 77 114 0 8 5 25 11 38 10 22
19 25 98 31 57 4 116 2 176 -8 348 -57 402 -68 425 -85 22 -15 45 -18 165 -17
133 1 144 3 220 33 85 34 114 45 130 48 6 2 48 20 94 40 47 21 99 38 115 39
17 0 33 4 36 8 3 4 23 3 45 -2 21 -5 42 -7 47 -4 11 7 204 -53 253 -79 22 -11
47 -21 55 -22 8 -1 56 -11 105 -22 87 -20 277 -38 360 -35 86 4 124 -7 148
-43 35 -54 203 -154 298 -178 14 -4 31 -18 37 -32 7 -14 24 -31 39 -37 16 -7
45 -23 65 -35 21 -13 44 -23 52 -23 8 0 17 -6 19 -12 4 -9 8 -10 14 -2 10 13
85 6 77 -7 -3 -5 -17 -9 -32 -9 -32 0 -67 -27 -77 -57 -5 -17 -3 -22 8 -17 10
3 16 -4 20 -24 5 -25 12 -30 44 -34 21 -3 44 -1 51 5 7 5 15 7 19 3 3 -3 1 -6
-5 -6 -6 0 -9 -7 -6 -15 5 -12 17 -14 53 -9 25 3 54 8 64 10 10 3 25 0 33 -6
15 -14 103 -6 135 10 12 7 19 6 23 -3 3 -8 9 -7 20 7 8 10 19 16 24 13 4 -3
24 4 43 15 19 12 41 22 50 23 9 1 29 13 45 28 16 15 34 27 41 27 7 0 13 4 13
9 0 5 15 19 34 30 25 16 50 21 98 21 94 0 274 19 341 36 63 16 227 91 227 104
0 4 14 13 31 20 25 11 32 11 39 0 5 -9 17 -10 36 -5 16 4 45 9 65 10 45 4 119
26 119 35 0 5 11 11 24 14 13 3 32 9 42 13 12 4 15 3 10 -5 -4 -7 -2 -12 4
-12 7 0 10 -6 7 -12 -2 -7 0 -24 5 -38 7 -20 11 -22 18 -10 8 12 10 11 10 -6
0 -22 23 -47 53 -57 9 -4 17 -12 17 -18 0 -9 4 -9 14 0 10 8 16 9 21 1 10 -17
22 -3 29 35 4 19 12 38 19 42 7 5 19 21 27 38 36 70 195 148 256 125 54 -21
136 -1 179 44 12 11 37 36 56 53 58 55 68 68 89 116 20 45 20 48 4 104 -9 32
-22 66 -29 76 -11 16 -9 26 11 66 46 88 63 262 38 376 -9 37 -92 167 -103 160
-5 -2 -18 4 -31 15 -24 21 -90 32 -213 34 -45 1 -92 7 -104 14 -31 17 -63 15
-63 -4 0 -21 -25 -44 -48 -44 -36 0 -114 -41 -160 -85 -30 -28 -32 -34 -32
-105 0 -41 -5 -82 -10 -90 -6 -11 -34 -17 -92 -20 -90 -6 -115 1 -178 51 -49
40 -149 89 -179 89 -21 0 -23 2 -11 10 12 7 8 10 -15 10 -32 1 -70 17 -145 62
-67 40 -170 75 -210 71 -110 -10 -155 -55 -233 -233 -16 -36 -79 -100 -98
-100 -9 0 -19 -7 -23 -15 -3 -8 -15 -15 -26 -15 -11 0 -20 -5 -20 -12 0 -6 -3
-9 -6 -5 -3 3 -18 1 -32 -4 -15 -6 -53 -11 -85 -11 -49 -1 -62 2 -73 18 -43
63 -114 155 -148 191 -22 24 -48 57 -58 74 -11 17 -22 29 -25 25 -3 -3 -13 3
-20 14 -8 11 -18 18 -23 15 -4 -3 -10 2 -14 10 -3 8 -21 23 -41 32 -19 9 -35
20 -35 25 0 4 -9 8 -20 8 -11 0 -20 4 -20 9 0 5 -10 13 -22 17 -13 4 -36 17
-53 30 -16 12 -55 34 -87 49 -31 15 -64 35 -74 46 -9 10 -23 19 -29 19 -7 0
-18 6 -24 14 -7 8 -37 26 -68 41 -30 15 -70 40 -88 56 -18 16 -64 40 -101 54
-116 43 -124 47 -124 61 0 8 -9 14 -21 14 -23 0 -72 34 -62 44 3 3 -1 6 -10 6
-8 0 -35 15 -59 33 -24 18 -72 51 -109 74 -81 51 -188 131 -253 189 -28 24
-56 44 -63 44 -7 0 -13 5 -13 10 0 6 -7 10 -15 10 -8 0 -15 4 -15 9 0 5 -9 12
-19 16 -21 6 -124 106 -186 179 -22 27 -66 75 -97 107 -32 32 -55 59 -52 59 4
0 -5 9 -19 20 -14 11 -30 20 -35 20 -6 0 -17 6 -24 14 -8 7 -28 21 -46 30 -18
9 -32 21 -32 26 0 5 -7 7 -15 4 -9 -4 -15 0 -15 10 0 10 -6 13 -15 10 -11 -5
-13 -2 -9 10 4 11 1 16 -10 16 -21 0 -111 89 -120 118 -4 12 -11 22 -15 22 -5
0 -18 23 -30 50 -12 28 -25 50 -30 50 -5 0 -12 11 -15 25 -4 14 -11 25 -16 25
-6 0 -10 6 -10 14 0 22 -65 37 -83 19z m3010 -2779 c-3 -3 -12 -4 -19 -1 -8 3
-5 6 6 6 11 1 17 -2 13 -5z m-33 -13 c3 -4 -6 -13 -20 -20 -30 -13 -45 -14
-24 -1 13 9 13 10 0 11 -10 0 -8 3 5 9 27 11 33 12 39 1z m-67 -26 c0 -17 -54
-39 -59 -23 -2 6 -11 4 -21 -6 -9 -10 -22 -14 -28 -10 -17 10 45 33 73 27 17
-3 19 -2 9 5 -11 8 -10 11 5 15 10 2 19 5 20 6 0 0 1 -6 1 -14z m-122 -44 c3
-6 -3 -9 -14 -8 -11 0 -17 5 -15 9 7 11 22 10 29 -1z"/>
</g>
</svg>
